<svg xmlns="http://www.w3.org/2000/svg" viewBox="0 0 1064 1064" fill="none">
  <path fill="currentColor" fill-rule="evenodd" d="M 524.321 21.556 C 520.340 23.299, 517.321 27.299, 512.251 37.547 C 510.062 41.972, 507.780 46.472, 507.179 47.547 C 506.579 48.621, 501.127 59.505, 495.063 71.734 C 488.999 83.962, 483.589 94.762, 483.041 95.734 C 482.492 96.705, 477.135 107.437, 471.135 119.582 C 465.136 131.726, 459.746 142.526, 459.158 143.582 C 458.569 144.637, 453.127 155.505, 447.063 167.734 C 440.999 179.962, 435.589 190.762, 435.041 191.734 C 434.492 192.705, 429.135 203.437, 423.135 215.582 C 417.136 227.726, 411.726 238.639, 411.114 239.832 C 410.501 241.024, 409.547 242.899, 408.993 243.998 C 408.439 245.097, 346.774 368.510, 271.960 518.248 C 197.147 667.987, 135.485 791.306, 134.933 792.292 C 134.382 793.278, 116.830 828.378, 95.929 870.292 C 75.029 912.206, 57.439 947.370, 56.842 948.432 C 56.244 949.495, 48.142 965.695, 38.838 984.432 C 29.533 1003.170, 21.488 1019.281, 20.960 1020.236 C 19.576 1022.740, 19.778 1032.804, 21.250 1034.664 C 24.483 1038.749, 28.381 1042, 30.047 1042 C 31.056 1042, 32.160 1042.450, 32.500 1043 C 32.911 1043.665, 200.677 1044, 532.559 1044 C 864.853 1044, 1032 1043.665, 1032 1043 C 1032 1042.450, 1032.847 1042, 1033.881 1042 C 1036.262 1042, 1042 1036.212, 1042 1033.810 C 1042 1032.815, 1042.450 1032, 1043 1032 C 1044.775 1032, 1044.063 1024.419, 1041.768 1018.883 C 1040.540 1015.923, 1030.303 995.024, 1019.018 972.443 C 1007.733 949.862, 998.050 930.417, 997.500 929.232 C 996.950 928.047, 986.036 906.247, 973.246 880.789 C 960.457 855.330, 949.994 833.975, 949.996 833.333 C 949.998 832.692, 949.645 832.017, 949.212 831.833 C 948.779 831.650, 937.936 810.350, 925.116 784.500 C 912.296 758.650, 901.431 736.825, 900.971 736 C 900.511 735.175, 889.713 713.575, 876.976 688 C 864.238 662.425, 853.441 640.825, 852.981 640 C 852.521 639.175, 841.714 617.575, 828.964 592 C 816.215 566.425, 805.417 544.825, 804.968 544 C 804.520 543.175, 782.923 499.975, 756.976 448 C 731.028 396.025, 709.428 352.825, 708.975 352 C 708.523 351.175, 697.720 329.575, 684.970 304 C 672.220 278.425, 661.414 256.825, 660.956 256 C 660.499 255.175, 634.797 203.875, 603.839 142 C 572.882 80.125, 546.979 28.905, 546.277 28.179 C 545.574 27.452, 545 26.499, 545 26.061 C 545 25.624, 543.210 24.081, 541.021 22.633 C 536.485 19.631, 529.713 19.194, 524.321 21.556 M 428.893 293.208 C 424.405 302.168, 401.183 348.650, 377.290 396.500 C 353.396 444.350, 332.221 486.752, 330.233 490.726 C 328.245 494.700, 326.817 498.126, 327.059 498.339 C 328.155 499.300, 553 497.669, 553 496.700 C 553 496.136, 550.125 490.235, 546.611 483.587 C 543.098 476.939, 537.527 466.325, 534.233 460 C 525.626 443.475, 499.569 393.918, 494.536 384.500 C 492.185 380.100, 487.099 370.425, 483.234 363 C 475.336 347.827, 472.023 341.498, 465.174 328.500 C 455.637 310.399, 443.593 287.379, 441.240 282.755 C 439.913 280.146, 438.428 277.764, 437.940 277.463 C 437.453 277.162, 433.382 284.247, 428.893 293.208 M 415.243 608.750 C 414.166 610.813, 409.770 618.800, 405.475 626.500 C 391.002 652.447, 390 654.276, 390 654.734 C 390 654.986, 389.150 656.386, 388.111 657.846 C 387.072 659.306, 384.807 663.200, 383.077 666.500 C 381.348 669.800, 379.510 673.175, 378.994 674 C 376.336 678.249, 350.868 724.199, 350.327 725.722 C 349.980 726.700, 349.147 728.175, 348.476 729 C 347.805 729.825, 345.903 732.975, 344.248 736 C 340.368 743.094, 332.686 756.853, 328.336 764.500 C 326.459 767.800, 323.989 772.333, 322.848 774.574 L 320.772 778.649 324.502 785.574 C 326.553 789.383, 329.924 795.425, 331.993 799 C 334.062 802.575, 340.247 813.600, 345.738 823.500 C 351.229 833.400, 356.608 843.075, 357.692 845 C 358.777 846.925, 363.651 855.700, 368.523 864.500 C 373.396 873.300, 377.634 880.725, 377.941 881 C 378.249 881.275, 379.850 884.200, 381.500 887.500 C 383.150 890.800, 385.622 895.300, 386.993 897.500 C 388.364 899.700, 390.164 902.872, 390.993 904.549 C 391.822 906.225, 398.122 917.588, 404.992 929.799 L 417.485 952 514.169 952 L 610.854 952 612.257 949.250 C 613.028 947.737, 615.928 942.450, 618.700 937.500 C 621.472 932.550, 624.985 926.250, 626.506 923.500 C 628.027 920.750, 630.785 915.888, 632.636 912.696 C 634.486 909.504, 636 906.700, 636 906.464 C 636 906.228, 637.800 903.094, 640 899.500 C 642.200 895.906, 644 892.810, 644 892.621 C 644 892.432, 645.722 889.177, 647.827 885.388 C 649.932 881.600, 654.272 873.775, 657.471 868 C 665.390 853.706, 667.119 850.612, 671.718 842.500 C 673.900 838.650, 677.163 832.800, 678.968 829.500 C 684.887 818.682, 692.217 805.544, 697.658 796 C 698.756 794.075, 701.376 789.408, 703.481 785.628 L 707.308 778.756 702.502 769.628 C 699.859 764.608, 696.932 759.375, 695.997 758 C 695.062 756.625, 692.354 751.900, 689.979 747.500 C 685.672 739.522, 683.912 736.348, 679.859 729.250 C 677.355 724.866, 674.470 719.657, 670.306 712 C 668.660 708.975, 664.013 700.650, 659.979 693.500 C 655.945 686.350, 651.556 678.475, 650.226 676 C 648.896 673.525, 647.464 671.050, 647.044 670.500 C 646.624 669.950, 644.340 665.900, 641.969 661.500 C 639.598 657.100, 636.848 652.150, 635.858 650.500 C 634.868 648.850, 633.230 645.925, 632.217 644 C 631.204 642.075, 628.328 636.900, 625.826 632.500 C 623.324 628.100, 619.576 621.350, 617.497 617.500 C 615.418 613.650, 613.106 609.790, 612.359 608.921 C 611.611 608.053, 611 606.815, 611 606.171 C 611 605.284, 587.479 605, 514.101 605 L 417.202 605 415.243 608.750 M 173.874 803.250 C 171.044 808.888, 157.706 835.550, 144.233 862.500 C 130.760 889.450, 114.782 921.400, 108.727 933.500 C 102.671 945.600, 92.430 966.075, 85.968 979 C 79.507 991.925, 74.422 1002.837, 74.669 1003.250 C 75.565 1004.747, 285 1004.149, 285 1002.650 C 285 1001.611, 224.400 879.770, 219.273 870.500 C 218.664 869.400, 209.716 851.513, 199.388 830.750 C 189.060 809.987, 180.251 793, 179.814 793 C 179.376 793, 176.703 797.612, 173.874 803.250 M 877.387 804.250 C 870.911 817.193, 843.954 870.351, 820.974 915.500 C 796.982 962.634, 777 1002.535, 777 1003.307 C 777 1004.084, 988.385 1004.281, 989.161 1003.506 C 989.837 1002.829, 884.843 793, 883.828 793 C 883.382 793, 880.483 798.063, 877.387 804.250"/>
</svg>
